<?xml version="1.0" encoding="utf-8"?>
<svg width="37" height="49" viewBox="0 0 37 49" version="1.1" xmlns="http://www.w3.org/2000/svg" xmlns:xlink="http://www.w3.org/1999/xlink">
  <defs id="SvgjsDefs1010"></defs>
  <g id="SvgjsG1011" featurekey="root" fill="#edc5a1"></g>
  <g id="SvgjsG1012" featurekey="text1" fill="#123758" transform="matrix(2.0841062616619537,0,0,2.0841062616619537,-1.3338289714295783,-7.4648067361169765)"><path d="M4.44 19.14 c0.72 0 1.32 -0.12 1.8 -0.34 c0.14 -0.06 0.28 -0.18 0.38 -0.36 s0.16 -0.38 0.22 -0.6 c0.16 -0.72 0.14 -1.64 0.14 -1.92 s-0.04 -1.18 -0.14 -1.92 c-0.06 -0.24 -0.14 -0.44 -0.22 -0.6 c-0.1 -0.18 -0.22 -0.32 -0.4 -0.4 c-0.46 -0.18 -1.06 -0.28 -1.78 -0.28 c-0.7 0 -1.42 0.1 -1.92 0.28 c-0.14 0.06 -0.22 0.14 -0.28 0.2 s-0.1 0.18 -0.14 0.32 c-0.16 0.72 -0.22 1.58 -0.22 2.4 s0.06 1.68 0.22 2.4 c0.04 0.14 0.08 0.26 0.14 0.32 s0.14 0.14 0.28 0.2 c0.5 0.22 1.22 0.3 1.92 0.3 z M6.86 18.88 l-0.06 0 c-0.04 0.14 -0.08 0.28 -0.12 0.4 c-0.06 0.16 -0.08 0.26 -0.14 0.32 s-0.14 0.12 -0.28 0.18 c-0.48 0.24 -1.12 0.32 -1.82 0.32 c-1.02 0 -2.04 -0.12 -2.74 -0.44 c-0.24 -0.1 -0.36 -0.16 -0.44 -0.26 s-0.14 -0.22 -0.24 -0.46 c-0.26 -0.82 -0.38 -1.92 -0.38 -3.02 c0 -1.06 0.1 -2.18 0.4 -3 c0.08 -0.22 0.14 -0.36 0.22 -0.46 c0.08 -0.08 0.18 -0.16 0.42 -0.26 c0.72 -0.32 1.74 -0.44 2.76 -0.44 c0.7 0 1.4 0.08 1.86 0.32 c0.14 0.08 0.22 0.12 0.3 0.2 c0.06 0.06 0.1 0.12 0.14 0.22 c0.06 0.14 0.06 0.18 0.12 0.34 l0.02 0 c0 -0.78 -0.02 -1.5 -0.02 -2.24 l0 -2.22 l1.2 0 l0 11.62 l-1.1 0 z M13.88 19.06 c0.94 0 1.8 0 2.54 -0.24 c0.14 -0.04 0.24 -0.08 0.28 -0.14 c0.06 -0.02 0.1 -0.12 0.16 -0.22 c0.26 -0.58 0.3 -1.2 0.3 -1.82 c0 -0.5 -0.08 -1.02 -0.26 -1.4 c-0.02 -0.06 -0.08 -0.12 -0.14 -0.2 c-0.04 -0.04 -0.12 -0.08 -0.22 -0.14 c-0.46 -0.16 -1.04 -0.2 -1.78 -0.2 l-2.18 0 l0.02 -0.98 l2.1 0 c0.72 0 1.28 -0.06 1.7 -0.2 c0.1 -0.04 0.18 -0.08 0.22 -0.12 c0.06 -0.06 0.06 -0.1 0.12 -0.2 c0.16 -0.38 0.24 -0.86 0.24 -1.36 c0 -0.66 -0.1 -1.26 -0.28 -1.68 c-0.06 -0.1 -0.1 -0.16 -0.16 -0.22 s-0.14 -0.1 -0.3 -0.16 c-0.5 -0.16 -1.2 -0.26 -2.46 -0.26 c-1.14 0 -1.78 0.1 -2.2 0.28 c-0.12 0.06 -0.2 0.12 -0.26 0.18 c-0.06 0.08 -0.08 0.14 -0.14 0.28 c-0.18 0.48 -0.24 1.16 -0.24 1.82 l0 0.2 l-1.18 0 l0 -0.12 c0 -0.96 0.1 -1.9 0.34 -2.62 c0.06 -0.18 0.12 -0.32 0.2 -0.4 s0.18 -0.16 0.36 -0.24 c0.94 -0.38 2.28 -0.38 3.06 -0.38 c1.04 0 2.36 0.02 3.5 0.34 c0.22 0.08 0.32 0.14 0.4 0.22 c0.1 0.08 0.16 0.18 0.24 0.34 c0.32 0.66 0.42 1.54 0.42 2.36 c0 0.56 -0.06 1.12 -0.3 1.66 c-0.08 0.14 -0.34 0.36 -0.48 0.44 c-0.18 0.1 -0.4 0.2 -0.62 0.28 l0 0.04 c0.26 0.04 0.48 0.08 0.66 0.14 c0.18 0.08 0.3 0.12 0.38 0.2 c0.08 0.06 0.14 0.12 0.2 0.26 c0.3 0.54 0.36 1.26 0.36 1.92 c0 0.88 -0.1 1.8 -0.42 2.46 c-0.1 0.16 -0.18 0.28 -0.28 0.36 c-0.1 0.06 -0.22 0.12 -0.46 0.2 c-1.1 0.34 -2.34 0.36 -3.48 0.36 c-1.06 0 -2.18 0 -3.16 -0.34 c-0.22 -0.08 -0.34 -0.12 -0.44 -0.2 c-0.08 -0.08 -0.14 -0.18 -0.22 -0.34 c-0.3 -0.64 -0.4 -1.52 -0.4 -2.34 l0 -0.56 l1.22 0 l0 0.72 c0 0.5 0.06 1.04 0.24 1.44 c0.06 0.1 0.08 0.16 0.14 0.22 c0.06 0.04 0.14 0.08 0.28 0.12 c0.7 0.24 1.5 0.24 2.38 0.24 z"></path></g>
  <g id="SvgjsG1013" featurekey="text3" fill="#123758" transform="matrix(0.4,0,0,0.4,19,49)"><path d=""></path></g>
</svg>
