<?xml version="1.0" encoding="UTF-8"?>
<svg width="186" height="161" viewBox="0 0 186 161" version="1.1" xmlns="http://www.w3.org/2000/svg" xmlns:xlink="http://www.w3.org/1999/xlink">
<defs id="SvgjsDefs1260"></defs><g id="SvgjsG1261" featurekey="root" fill="#edc5a1"></g><g id="SvgjsG1262" featurekey="text1" fill="#123758" transform="matrix(10.420531308309767,0,0,10.420531308309767,-6.6691448571478915,-77.32403368058488)"><path d="M4.44 19.14 c0.72 0 1.32 -0.12 1.8 -0.34 c0.14 -0.06 0.28 -0.18 0.38 -0.36 s0.16 -0.38 0.22 -0.6 c0.16 -0.72 0.14 -1.64 0.14 -1.92 s-0.04 -1.18 -0.14 -1.92 c-0.06 -0.24 -0.14 -0.44 -0.22 -0.6 c-0.1 -0.18 -0.22 -0.32 -0.4 -0.4 c-0.46 -0.18 -1.06 -0.28 -1.78 -0.28 c-0.7 0 -1.42 0.1 -1.92 0.28 c-0.14 0.06 -0.22 0.14 -0.28 0.2 s-0.1 0.18 -0.14 0.32 c-0.16 0.72 -0.22 1.58 -0.22 2.4 s0.06 1.68 0.22 2.4 c0.04 0.14 0.08 0.26 0.14 0.32 s0.14 0.14 0.28 0.2 c0.5 0.22 1.22 0.3 1.92 0.3 z M6.86 18.88 l-0.06 0 c-0.04 0.14 -0.08 0.28 -0.12 0.4 c-0.06 0.16 -0.08 0.26 -0.14 0.32 s-0.14 0.12 -0.28 0.18 c-0.48 0.24 -1.12 0.32 -1.82 0.32 c-1.02 0 -2.04 -0.12 -2.74 -0.44 c-0.24 -0.1 -0.36 -0.16 -0.44 -0.26 s-0.14 -0.22 -0.24 -0.46 c-0.26 -0.82 -0.38 -1.92 -0.38 -3.02 c0 -1.06 0.1 -2.18 0.4 -3 c0.08 -0.22 0.14 -0.36 0.22 -0.46 c0.08 -0.08 0.18 -0.16 0.42 -0.26 c0.72 -0.32 1.74 -0.44 2.76 -0.44 c0.7 0 1.4 0.08 1.86 0.32 c0.14 0.08 0.22 0.12 0.3 0.2 c0.06 0.06 0.1 0.12 0.14 0.22 c0.06 0.14 0.06 0.18 0.12 0.34 l0.02 0 c0 -0.78 -0.02 -1.5 -0.02 -2.24 l0 -2.22 l1.2 0 l0 11.62 l-1.1 0 z M13.88 19.06 c0.94 0 1.8 0 2.54 -0.24 c0.14 -0.04 0.24 -0.08 0.28 -0.14 c0.06 -0.02 0.1 -0.12 0.16 -0.22 c0.26 -0.58 0.3 -1.2 0.3 -1.82 c0 -0.5 -0.08 -1.02 -0.26 -1.4 c-0.02 -0.06 -0.08 -0.12 -0.14 -0.2 c-0.04 -0.04 -0.12 -0.08 -0.22 -0.14 c-0.46 -0.16 -1.04 -0.2 -1.78 -0.2 l-2.18 0 l0.02 -0.98 l2.1 0 c0.72 0 1.28 -0.06 1.7 -0.2 c0.1 -0.04 0.18 -0.08 0.22 -0.12 c0.06 -0.06 0.06 -0.1 0.12 -0.2 c0.16 -0.38 0.24 -0.86 0.24 -1.36 c0 -0.66 -0.1 -1.26 -0.28 -1.68 c-0.06 -0.1 -0.1 -0.16 -0.16 -0.22 s-0.14 -0.1 -0.3 -0.16 c-0.5 -0.16 -1.2 -0.26 -2.46 -0.26 c-1.14 0 -1.78 0.1 -2.2 0.28 c-0.12 0.06 -0.2 0.12 -0.26 0.18 c-0.06 0.08 -0.08 0.14 -0.14 0.28 c-0.18 0.48 -0.24 1.16 -0.24 1.82 l0 0.2 l-1.18 0 l0 -0.12 c0 -0.96 0.1 -1.9 0.34 -2.62 c0.06 -0.18 0.12 -0.32 0.2 -0.4 s0.18 -0.16 0.36 -0.24 c0.94 -0.38 2.28 -0.38 3.06 -0.38 c1.04 0 2.36 0.02 3.5 0.34 c0.22 0.08 0.32 0.14 0.4 0.22 c0.1 0.08 0.16 0.18 0.24 0.34 c0.32 0.66 0.42 1.54 0.42 2.36 c0 0.56 -0.06 1.12 -0.3 1.66 c-0.08 0.14 -0.34 0.36 -0.48 0.44 c-0.18 0.1 -0.4 0.2 -0.62 0.28 l0 0.04 c0.26 0.04 0.48 0.08 0.66 0.14 c0.18 0.08 0.3 0.12 0.38 0.2 c0.08 0.06 0.14 0.12 0.2 0.26 c0.3 0.54 0.36 1.26 0.36 1.92 c0 0.88 -0.1 1.8 -0.42 2.46 c-0.1 0.16 -0.18 0.28 -0.28 0.36 c-0.1 0.06 -0.22 0.12 -0.46 0.2 c-1.1 0.34 -2.34 0.36 -3.48 0.36 c-1.06 0 -2.18 0 -3.16 -0.34 c-0.22 -0.08 -0.34 -0.12 -0.44 -0.2 c-0.08 -0.08 -0.14 -0.18 -0.22 -0.34 c-0.3 -0.64 -0.4 -1.52 -0.4 -2.34 l0 -0.56 l1.22 0 l0 0.72 c0 0.5 0.06 1.04 0.24 1.44 c0.06 0.1 0.08 0.16 0.14 0.22 c0.06 0.04 0.14 0.08 0.28 0.12 c0.7 0.24 1.5 0.24 2.38 0.24 z"></path></g><g id="SvgjsG1263" featurekey="text3" fill="#123758" transform="matrix(0.959074762777438,0,0,0.959074762777438,1.9641995580332068,141.22636811708279)"><path d="M8.24 19.8 c-0.09334 0.09334 -0.18336 0.15 -0.27002 0.17 s-0.20332 0.03 -0.34998 0.03 l-6.26 0 c-0.18666 0 -0.28 -0.09334 -0.28 -0.28 l0 -13.4 c0 -0.18666 0.09334 -0.28 0.28 -0.28 l6.36 0 c0.08 0 0.16 0.0066602 0.24 0.02 s0.17334 0.07334 0.28 0.18 l1.12 1.12 c0.12 0.12 0.18666 0.21666 0.2 0.29 s0.02 0.15 0.02 0.23 l0 10.28 c0 0.10666 -0.02334 0.2 -0.07 0.28 s-0.09666 0.15334 -0.15 0.22 z M7.1 17.32 c0.04 -0.02666 0.06 -0.07334 0.06 -0.14 l0 -8.22 c0 -0.05334 -0.02 -0.1 -0.06 -0.14 l-0.32 -0.32 c-0.04 -0.04 -0.08666 -0.06 -0.14 -0.06 l-3.16 0 l0 9.16 l3.34 0 z M19.560000000000002 20 c-0.08 0 -0.15664 -0.03002 -0.22998 -0.09002 s-0.12334 -0.13 -0.15 -0.21 l-0.78 -2.68 l-4.46 0 l-0.78 2.68 c-0.02666 0.08 -0.07666 0.15 -0.15 0.21 s-0.15 0.09 -0.23 0.09 l-1.74 0 c-0.08 0 -0.15666 -0.03 -0.23 -0.09 s-0.09668 -0.13 -0.07002 -0.21 l3.96 -13.38 c0.02666 -0.06666 0.06 -0.13332 0.1 -0.19998 s0.1 -0.1 0.18 -0.1 l2.36 0 c0.13334 0 0.23334 0.09334 0.3 0.28 l3.94 13.4 c0.02666 0.08 0.0066602 0.15 -0.06 0.21 s-0.14 0.09 -0.22 0.09 l-1.74 0 z M16.16 9.48 l-1.5 5.1 l3.02 0 z M25.48 20 c-0.06666 0 -0.12334 -0.02336 -0.17 -0.07002 s-0.07 -0.10332 -0.07 -0.16998 l0 -11.32 l-2.8 0 c-0.18666 0 -0.28 -0.09334 -0.28 -0.28 l0 -1.84 c0 -0.18666 0.09334 -0.28 0.28 -0.28 l8.02 0 c0.06666 0 0.13 0.02666 0.19 0.08 s0.09 0.12 0.09 0.2 l0 1.84 c0 0.08 -0.03 0.14666 -0.09 0.2 s-0.12334 0.08 -0.19 0.08 l-2.82 0 l0 11.32 c0 0.16 -0.07334 0.24 -0.22 0.24 l-1.94 0 z M40.14 20 c-0.08 0 -0.15664 -0.03002 -0.22998 -0.09002 s-0.12334 -0.13 -0.15 -0.21 l-0.78 -2.68 l-4.46 0 l-0.78 2.68 c-0.02666 0.08 -0.07666 0.15 -0.15 0.21 s-0.15 0.09 -0.23 0.09 l-1.74 0 c-0.08 0 -0.15666 -0.03 -0.23 -0.09 s-0.09668 -0.13 -0.07002 -0.21 l3.96 -13.38 c0.02666 -0.06666 0.06 -0.13332 0.1 -0.19998 s0.1 -0.1 0.18 -0.1 l2.36 0 c0.13334 0 0.23334 0.09334 0.3 0.28 l3.94 13.4 c0.02666 0.08 0.0066602 0.15 -0.06 0.21 s-0.14 0.09 -0.22 0.09 l-1.74 0 z M36.74 9.48 l-1.5 5.1 l3.02 0 z  M55.38 19.8 c-0.09334 0.09334 -0.18336 0.15 -0.27002 0.17 s-0.20332 0.03 -0.34998 0.03 l-6.26 0 c-0.18666 0 -0.28 -0.09334 -0.28 -0.28 l0 -13.4 c0 -0.18666 0.09334 -0.28 0.28 -0.28 l6.36 0 c0.08 0 0.16 0.0066602 0.24 0.02 s0.17334 0.07334 0.28 0.18 l1.12 1.12 c0.12 0.12 0.18666 0.21666 0.2 0.29 s0.02 0.15 0.02 0.23 l0 10.28 c0 0.10666 -0.02334 0.2 -0.07 0.28 s-0.09666 0.15334 -0.15 0.22 z M54.24 17.32 c0.04 -0.02666 0.06 -0.07334 0.06 -0.14 l0 -8.22 c0 -0.05334 -0.02 -0.1 -0.06 -0.14 l-0.32 -0.32 c-0.04 -0.04 -0.08666 -0.06 -0.14 -0.06 l-3.16 0 l0 9.16 l3.34 0 z M65.76 20 c-0.08 0 -0.15334 -0.03 -0.22 -0.09 s-0.11332 -0.12334 -0.13998 -0.19 l-1.98 -4.86 l-2.24 0 l0 4.86 c0 0.18666 -0.09334 0.28 -0.28 0.28 l-1.84 0 c-0.18666 0 -0.28 -0.09334 -0.28 -0.28 l0 -13.4 c0 -0.18666 0.09334 -0.28 0.28 -0.28 l6.36 0 c0.05334 0 0.10668 0.0066602 0.16002 0.02 s0.11 0.03 0.17 0.05 s0.12334 0.06334 0.19 0.13 l1.12 1.12 c0.10666 0.10666 0.17332 0.22666 0.19998 0.36 c0.01334 0.05334 0.02 0.10668 0.02 0.16002 l0 5.08 c0 0.24 -0.07334 0.43334 -0.22 0.58 l-1.18 1.18 l2.02 4.98 c0.02666 0.06666 0.02332 0.13332 -0.01002 0.19998 s-0.11 0.1 -0.23 0.1 l-1.9 0 z M64.8 12.08 c0.04 -0.04 0.05998 -0.08666 0.05998 -0.14 l0 -3.02 c0 -0.04 -0.01334 -0.07334 -0.04 -0.1 l-0.34 -0.32 c-0.06666 -0.04 -0.11332 -0.06 -0.13998 -0.06 l-3.16 0 l0 4.02 l3.16 0 c0.05334 0 0.1 -0.02 0.14 -0.06 z M69.56 20 c-0.18666 0 -0.28 -0.09334 -0.28 -0.28 l0 -13.4 c0 -0.18666 0.09334 -0.28 0.28 -0.28 l1.84 0 c0.18666 0 0.28 0.09334 0.28 0.28 l0 13.4 c0 0.18666 -0.09334 0.28 -0.28 0.28 l-1.84 0 z M76.78 20 c-0.08 0 -0.15668 -0.03664 -0.23002 -0.10998 s-0.12334 -0.14334 -0.15 -0.21 l-3.46 -13.28 c-0.02666 -0.08 -0.01332 -0.16 0.04002 -0.24 s0.12 -0.12 0.2 -0.12 l1.96 0 c0.16 0 0.26 0.09334 0.3 0.28 l2.4 10.3 l2.4 -10.3 c0.04 -0.18666 0.14 -0.28 0.3 -0.28 l1.96 0 c0.08 0 0.15 0.04334 0.21 0.13 s0.07666 0.16332 0.05 0.22998 l-3.46 13.24 c-0.02666 0.12 -0.08 0.21 -0.16 0.27 s-0.15334 0.09 -0.22 0.09 l-2.14 0 z M84.32000000000001 20 c-0.18666 0 -0.28 -0.09334 -0.28 -0.28 l0 -13.4 c0 -0.18666 0.09334 -0.28 0.28 -0.28 l7.26 0 c0.18666 0 0.28 0.09334 0.28 0.28 l0 1.84 c0 0.06666 -0.02666 0.13 -0.08 0.19 s-0.12 0.09 -0.2 0.09 l-5.14 0 l0 3.38 l4.06 0 c0.06666 0 0.13 0.02666 0.19 0.08 s0.09 0.12 0.09 0.2 l0 1.84 c0 0.08 -0.03 0.14666 -0.09 0.2 s-0.12334 0.08 -0.19 0.08 l-4.06 0 l0 3.38 l5.14 0 c0.18666 0 0.28 0.09334 0.28 0.28 l0 1.84 c0 0.18666 -0.09334 0.28 -0.28 0.28 l-7.26 0 z M99.74000000000001 20 c-0.08 0 -0.15666 -0.03 -0.23 -0.09 s-0.12334 -0.12334 -0.15 -0.19 l-3.5 -8.64 l0 8.64 c0 0.18666 -0.09334 0.28 -0.28 0.28 l-1.84 0 c-0.18666 0 -0.28 -0.09334 -0.28 -0.28 l0 -13.4 c0 -0.18666 0.09334 -0.28 0.28 -0.28 l2.44 0 c0.13334 0 0.23334 0.09334 0.3 0.28 l3.1 8.02 l0.12 0.56 l0 -8.58 c0 -0.18666 0.09334 -0.28 0.28 -0.28 l1.84 0 c0.18666 0 0.28 0.09334 0.28 0.28 l0 13.4 c0 0.18666 -0.09334 0.28 -0.28 0.28 l-2.08 0 z  M116.22 19.8 c-0.09334 0.09334 -0.18336 0.15 -0.27002 0.17 s-0.20332 0.03 -0.34998 0.03 l-6.26 0 c-0.18666 0 -0.28 -0.09334 -0.28 -0.28 l0 -13.4 c0 -0.18666 0.09334 -0.28 0.28 -0.28 l6.36 0 c0.08 0 0.16 0.0066602 0.24 0.02 s0.17334 0.07334 0.28 0.18 l1.12 1.12 c0.12 0.12 0.18666 0.21666 0.2 0.29 s0.02 0.15 0.02 0.23 l0 10.28 c0 0.10666 -0.02334 0.2 -0.07 0.28 s-0.09666 0.15334 -0.15 0.22 z M115.08 17.32 c0.04 -0.02666 0.06 -0.07334 0.06 -0.14 l0 -8.22 c0 -0.05334 -0.02 -0.1 -0.06 -0.14 l-0.32 -0.32 c-0.04 -0.04 -0.08666 -0.06 -0.14 -0.06 l-3.16 0 l0 9.16 l3.34 0 z M122.86000000000001 20 c-0.14666 0 -0.22 -0.09334 -0.22 -0.28 l0 -6.16 l-3.98 -7.2 c-0.05334 -0.08 -0.04 -0.15334 0.04 -0.22 s0.16 -0.1 0.24 -0.1 l2.02 0 c0.08 0 0.15334 0.03 0.22 0.09 s0.12 0.12334 0.16 0.19 l2.5 5.02 l2.5 -5.02 c0.04 -0.06666 0.09334 -0.13 0.16 -0.19 s0.14 -0.09 0.22 -0.09 l2.02 0 c0.08 0 0.16 0.03334 0.24 0.1 s0.09334 0.14 0.04 0.22 l-3.98 7.2 l0 6.16 c0 0.18666 -0.08 0.28 -0.24 0.28 l-1.94 0 z M136.50000000000003 20 c-0.08 0 -0.15666 -0.03 -0.23 -0.09 s-0.12334 -0.12334 -0.15 -0.19 l-3.5 -8.64 l0 8.64 c0 0.18666 -0.09334 0.28 -0.28 0.28 l-1.84 0 c-0.18666 0 -0.28 -0.09334 -0.28 -0.28 l0 -13.4 c0 -0.18666 0.09334 -0.28 0.28 -0.28 l2.44 0 c0.13334 0 0.23334 0.09334 0.3 0.28 l3.1 8.02 l0.12 0.56 l0 -8.58 c0 -0.18666 0.09334 -0.28 0.28 -0.28 l1.84 0 c0.18666 0 0.28 0.09334 0.28 0.28 l0 13.4 c0 0.18666 -0.09334 0.28 -0.28 0.28 l-2.08 0 z M148.94000000000003 20 c-0.08 0 -0.15664 -0.03002 -0.22998 -0.09002 s-0.12334 -0.13 -0.15 -0.21 l-0.78 -2.68 l-4.46 0 l-0.78 2.68 c-0.02666 0.08 -0.07666 0.15 -0.15 0.21 s-0.15 0.09 -0.23 0.09 l-1.74 0 c-0.08 0 -0.15666 -0.03 -0.23 -0.09 s-0.09668 -0.13 -0.07002 -0.21 l3.96 -13.38 c0.02666 -0.06666 0.06 -0.13332 0.1 -0.19998 s0.1 -0.1 0.18 -0.1 l2.36 0 c0.13334 0 0.23334 0.09334 0.3 0.28 l3.94 13.4 c0.02666 0.08 0.0066602 0.15 -0.06 0.21 s-0.14 0.09 -0.22 0.09 l-1.74 0 z M145.54000000000002 9.48 l-1.5 5.1 l3.02 0 z M161.24 20 c-0.18666 0 -0.28 -0.09334 -0.28 -0.28 l-0.12 -6.8 l-2.04 6.8 c-0.02666 0.06666 -0.07666 0.13 -0.15 0.19 s-0.15 0.09 -0.23 0.09 l-1.6 0 c-0.09334 0 -0.17334 -0.03334 -0.24 -0.1 s-0.11332 -0.14 -0.13998 -0.22 l-2.04 -6.76 l-0.1 6.8 c0 0.18666 -0.09334 0.28 -0.28 0.28 l-1.84 0 c-0.18666 0 -0.28 -0.09334 -0.28 -0.28 l0.54 -13.4 c0 -0.06666 0.02334 -0.13 0.07 -0.19 s0.10332 -0.09 0.16998 -0.09 l1.98 0 c0.14666 0 0.24666 0.09334 0.3 0.28 l2.66 9.8 l2.68 -9.8 c0.05334 -0.18666 0.15334 -0.28 0.3 -0.28 l1.96 0 c0.06666 0 0.12666 0.03 0.18 0.09 s0.08 0.12334 0.08 0.19 l0.54 13.4 c0 0.08 -0.03 0.14666 -0.09 0.2 s-0.12334 0.08 -0.19 0.08 l-1.84 0 z M165.48000000000002 20 c-0.18666 0 -0.28 -0.09334 -0.28 -0.28 l0 -13.4 c0 -0.18666 0.09334 -0.28 0.28 -0.28 l1.84 0 c0.18666 0 0.28 0.09334 0.28 0.28 l0 13.4 c0 0.18666 -0.09334 0.28 -0.28 0.28 l-1.84 0 z M177.20000000000002 19.8 c-0.06666 0.06666 -0.13336 0.11668 -0.20002 0.15002 s-0.17332 0.05 -0.31998 0.05 l-5.22 0 c-0.08 0 -0.15334 -0.01 -0.22 -0.03 s-0.14666 -0.07666 -0.24 -0.17 l-1.14 -1.14 c-0.08 -0.08 -0.13334 -0.15666 -0.16 -0.23 s-0.04 -0.15 -0.04 -0.23 l0 -10.32 c0 -0.21334 0.06666 -0.38668 0.2 -0.52002 l1.14 -1.12 c0.08 -0.08 0.16334 -0.13334 0.25 -0.16 s0.17666 -0.04 0.27 -0.04 l5.16 0 c0.10666 0 0.2 0.01334 0.28 0.04 s0.16 0.08 0.24 0.16 l1.12 1.12 c0.08 0.08 0.13666 0.15 0.17 0.21 s0.05 0.16334 0.05 0.31 l0 2.14 c0 0.18666 -0.09334 0.28 -0.28 0.28 l-1.84 0 c-0.18666 0 -0.28 -0.09334 -0.28 -0.28 l0 -1.06 c0 -0.05334 -0.02 -0.1 -0.06 -0.14 l-0.34 -0.32 c-0.06666 -0.04 -0.10666 -0.06 -0.12 -0.06 l-3 0 c-0.06666 0 -0.12 0.02 -0.16 0.06 l-0.34 0.32 c-0.04 0.04 -0.06 0.08666 -0.06 0.14 l0 8.18 c0 0.08 0.02 0.14 0.06 0.18 l0.28 0.28 l3.4 0 l0.28 -0.28 c0.04 -0.04 0.06 -0.08666 0.06 -0.14 l0 -1.12 c0 -0.08 0.02666 -0.15 0.08 -0.21 s0.12 -0.09 0.2 -0.09 l1.84 0 c0.08 0 0.14666 0.03 0.2 0.09 s0.08 0.13 0.08 0.21 l0 2.12 c0 0.09334 -0.01334 0.17334 -0.04 0.24 s-0.08666 0.14666 -0.18 0.24 z M187.76 19.8 c-0.08 0.08 -0.16666 0.13338 -0.26 0.16004 s-0.18 0.04 -0.26 0.04 l-5.16 0 c-0.14666 0 -0.25 -0.01666 -0.31 -0.05 s-0.13 -0.09 -0.21 -0.17 l-1.14 -1.12 c-0.09334 -0.09334 -0.15 -0.17668 -0.17 -0.25002 s-0.03 -0.14334 -0.03 -0.21 l0 -2.04 c0 -0.06666 0.02666 -0.13 0.08 -0.19 s0.12 -0.09 0.2 -0.09 l1.84 0 c0.08 0 0.14666 0.03 0.2 0.09 s0.08 0.12334 0.08 0.19 l0 1.44 l3.58 0 c0.02666 0 0.06 -0.02 0.1 -0.06 l0.34 -0.32 c0.04 -0.02666 0.06 -0.07332 0.06 -0.13998 l0 -2.34 c0 -0.05334 -0.02 -0.1 -0.06 -0.14 l-0.32 -0.32 c-0.04 -0.04 -0.08666 -0.06 -0.14 -0.06 l-4.16 0 c-0.04 0 -0.10334 -0.01334 -0.19 -0.04 s-0.17666 -0.08666 -0.27 -0.18 l-1.14 -1.12 c-0.08 -0.08 -0.13334 -0.16334 -0.16 -0.25 s-0.04 -0.17 -0.04 -0.25 l0 -4.5 c0 -0.06666 0.01334 -0.14666 0.04 -0.24 s0.08666 -0.18668 0.18 -0.28002 l1.12 -1.12 c0.06666 -0.06666 0.13 -0.11666 0.19 -0.15 s0.17 -0.05 0.33 -0.05 l5.16 0 c0.08 0 0.17 0.01666 0.27 0.05 s0.18334 0.08334 0.25 0.15 l1.12 1.12 c0.10666 0.12 0.17 0.21666 0.19 0.29 s0.03 0.15 0.03 0.23 l0 2.1 c0 0.18666 -0.09334 0.28 -0.28 0.28 l-1.84 0 c-0.18666 0 -0.28 -0.09334 -0.28 -0.28 l0 -1.54 l-3.52 0 c-0.05334 0 -0.10668 0.02 -0.16002 0.06 l-0.34 0.32 c-0.04 0.02666 -0.06 0.07332 -0.06 0.13998 l0 2.32 c0 0.05334 0.02 0.1 0.06 0.14 l0.34 0.34 c0.04 0.04 0.09334 0.06 0.16 0.06 l4.06 0 c0.21334 0 0.38668 0.06666 0.52002 0.2 l1.12 1.12 c0.14666 0.16 0.22 0.33334 0.22 0.52 l0 4.48 c0 0.2 -0.07334 0.37334 -0.22 0.52 z"></path></g></svg>